<svg width="35" height="35" viewBox="0 0 35 35" fill="none" xmlns="http://www.w3.org/2000/svg">
<path d="M23.3333 32.1227V27.9373C23.388 27.2419 23.2941 26.5428 23.0577 25.8866C22.8214 25.2303 22.448 24.6319 21.9625 24.131C26.5416 23.6206 31.3541 21.8852 31.3541 13.9227C31.3538 11.8866 30.5706 9.92862 29.1666 8.45396C29.8314 6.67261 29.7844 4.70364 29.0354 2.95604C29.0354 2.95604 27.3146 2.44563 23.3333 5.11438C19.9908 4.20849 16.4675 4.20849 13.125 5.11438C9.14373 2.44563 7.4229 2.95604 7.4229 2.95604C6.67386 4.70364 6.62686 6.67261 7.29165 8.45396C5.87725 9.93956 5.09324 11.9153 5.10415 13.9665C5.10415 21.8706 9.91665 23.606 14.4958 24.1748C14.016 24.6706 13.646 25.2618 13.4098 25.9101C13.1736 26.5583 13.0766 27.2491 13.125 27.9373V32.1227" stroke="#545454" stroke-width="1.5" stroke-linecap="round" stroke-linejoin="round"/>
<path d="M13.125 29.206C8.74999 30.625 5.10416 29.206 2.91666 24.831" stroke="#545454" stroke-width="1.5" stroke-linecap="round" stroke-linejoin="round"/>
</svg>
