<svg width="35" height="35" viewBox="0 0 35 35" fill="none" xmlns="http://www.w3.org/2000/svg">
<path d="M17.5 10.9375C16.2021 10.9375 14.9333 11.3224 13.8541 12.0435C12.7749 12.7646 11.9337 13.7895 11.437 14.9886C10.9403 16.1878 10.8104 17.5073 11.0636 18.7803C11.3168 20.0533 11.9418 21.2226 12.8596 22.1404C13.7774 23.0582 14.9467 23.6832 16.2197 23.9364C17.4927 24.1896 18.8122 24.0597 20.0114 23.563C21.2105 23.0663 22.2354 22.2251 22.9565 21.1459C23.6776 20.0667 24.0625 18.7979 24.0625 17.5C24.0625 15.7595 23.3711 14.0903 22.1404 12.8596C20.9097 11.6289 19.2405 10.9375 17.5 10.9375ZM17.5 21.875C16.6347 21.875 15.7888 21.6184 15.0694 21.1377C14.3499 20.6569 13.7892 19.9737 13.458 19.1742C13.1269 18.3748 13.0403 17.4951 13.2091 16.6465C13.3779 15.7978 13.7946 15.0183 14.4064 14.4064C15.0183 13.7946 15.7978 13.3779 16.6465 13.2091C17.4951 13.0403 18.3748 13.1269 19.1742 13.458C19.9737 13.7892 20.6569 14.3499 21.1377 15.0694C21.6184 15.7888 21.875 16.6347 21.875 17.5C21.8714 18.6592 21.4093 19.7699 20.5896 20.5896C19.7699 21.4093 18.6592 21.8714 17.5 21.875ZM23.5156 3.82812H11.4844C9.45381 3.82813 7.50641 4.63476 6.07059 6.07059C4.63476 7.50641 3.82813 9.45381 3.82812 11.4844V23.5156C3.82813 25.5462 4.63476 27.4936 6.07059 28.9294C7.50641 30.3652 9.45381 31.1719 11.4844 31.1719H23.5156C25.5462 31.1719 27.4936 30.3652 28.9294 28.9294C30.3652 27.4936 31.1719 25.5462 31.1719 23.5156V11.4844C31.1719 9.45381 30.3652 7.50641 28.9294 6.07059C27.4936 4.63476 25.5462 3.82813 23.5156 3.82812ZM28.9844 23.5156C28.9844 24.2338 28.8429 24.9449 28.5681 25.6084C28.2933 26.2719 27.8904 26.8748 27.3826 27.3826C26.8748 27.8904 26.2719 28.2933 25.6084 28.5681C24.9449 28.8429 24.2338 28.9844 23.5156 28.9844H11.4844C10.7662 28.9844 10.0551 28.8429 9.39158 28.5681C8.72808 28.2933 8.12521 27.8904 7.61738 27.3826C7.10956 26.8748 6.70674 26.2719 6.43191 25.6084C6.15708 24.9449 6.01562 24.2338 6.01562 23.5156V11.4844C6.01562 10.034 6.5918 8.64297 7.61738 7.61738C8.64297 6.5918 10.034 6.01562 11.4844 6.01562H23.5156C24.2338 6.01562 24.9449 6.15708 25.6084 6.43191C26.2719 6.70674 26.8748 7.10956 27.3826 7.61738C27.8904 8.12521 28.2933 8.72808 28.5681 9.39158C28.8429 10.0551 28.9844 10.7662 28.9844 11.4844V23.5156ZM26.25 10.3906C26.25 10.7151 26.1538 11.0323 25.9735 11.3021C25.7932 11.5719 25.537 11.7822 25.2372 11.9064C24.9374 12.0305 24.6076 12.063 24.2893 11.9997C23.9711 11.9364 23.6787 11.7802 23.4493 11.5507C23.2198 11.3213 23.0636 11.0289 23.0003 10.7107C22.937 10.3924 22.9695 10.0626 23.0936 9.76278C23.2178 9.463 23.4281 9.20677 23.6979 9.02649C23.9677 8.84622 24.2849 8.75 24.6094 8.75C25.0445 8.75 25.4618 8.92285 25.7695 9.23053C26.0771 9.5382 26.25 9.9555 26.25 10.3906Z" fill="#545454"/>
</svg>
