<svg width="35" height="35" viewBox="0 0 35 35" fill="none" xmlns="http://www.w3.org/2000/svg">
<path d="M31.7365 19.6383C31.6312 19.5331 31.4991 19.4585 31.3546 19.4226C31.2101 19.3868 31.0586 19.3909 30.9162 19.4346C28.7834 20.0792 26.5156 20.1331 24.3545 19.5905C22.1935 19.0478 20.2201 17.929 18.6448 16.3533C17.0695 14.7776 15.9512 12.8039 15.4092 10.6427C14.8671 8.48152 14.9216 6.21374 15.5668 4.08106C15.6099 3.93885 15.6136 3.78759 15.5774 3.64345C15.5412 3.49932 15.4666 3.36771 15.3614 3.2627C15.2563 3.15769 15.1246 3.08322 14.9804 3.04724C14.8362 3.01125 14.6849 3.01512 14.5428 3.05841C11.7148 3.92601 9.23239 5.6631 7.44845 8.02267C5.42619 10.7079 4.44197 14.0333 4.67695 17.3867C4.91194 20.7401 6.35033 23.8957 8.72733 26.2727C11.1043 28.6497 14.26 30.0881 17.6133 30.3231C20.9667 30.5581 24.2921 29.5738 26.9774 27.5516C29.3369 25.7676 31.074 23.2852 31.9416 20.4572C31.9849 20.315 31.9886 20.1636 31.9525 20.0194C31.9164 19.8751 31.8417 19.7434 31.7365 19.6383ZM25.9943 26.2404C23.6248 28.0176 20.6937 28.8804 17.7393 28.6704C14.7848 28.4605 12.0052 27.1918 9.9108 25.0974C7.81641 23.003 6.54777 20.2234 6.3378 17.269C6.12783 14.3145 6.99063 11.3834 8.76778 9.01388C10.0336 7.33555 11.7044 6.00573 13.624 5.14884C13.2199 7.36863 13.3601 9.65332 14.0326 11.8071C14.7051 13.9608 15.8898 15.9193 17.4853 17.5147C19.0807 19.1102 21.0392 20.2949 23.193 20.9674C25.3467 21.6399 27.6314 21.7801 29.8512 21.376C28.9966 23.2981 27.6682 24.9718 25.9902 26.2404H25.9943Z" fill="#545454"/>
</svg>
