<svg width="35" height="35" viewBox="0 0 35 35" fill="none" xmlns="http://www.w3.org/2000/svg">
<path d="M22.3262 16.8164L15.7637 12.4414C15.6401 12.36 15.4968 12.3136 15.349 12.307C15.2012 12.3004 15.0544 12.3339 14.9241 12.404C14.7937 12.474 14.6848 12.578 14.6088 12.705C14.5327 12.8319 14.4925 12.977 14.4922 13.125V21.875C14.4924 22.0241 14.5332 22.1704 14.6103 22.2981C14.6873 22.4258 14.7978 22.53 14.9297 22.5996C15.0592 22.6695 15.2054 22.7026 15.3524 22.6954C15.4994 22.6882 15.6416 22.6409 15.7637 22.5586L22.3262 18.1836C22.439 18.1088 22.5315 18.0072 22.5955 17.8879C22.6595 17.7686 22.693 17.6354 22.693 17.5C22.693 17.3646 22.6595 17.2314 22.5955 17.1121C22.5315 16.9928 22.439 16.8912 22.3262 16.8164ZM16.1328 20.3437V14.6562L20.3984 17.5L16.1328 20.3437ZM31.7734 9.61132C31.6545 9.14989 31.4276 8.72333 31.1114 8.36678C30.7953 8.01023 30.399 7.73389 29.9551 7.56054C25.293 5.76952 17.8145 5.79687 17.5 5.79687C17.1855 5.79687 9.70703 5.76952 5.04492 7.56054C4.60105 7.73389 4.20472 8.01023 3.88858 8.36678C3.57244 8.72333 3.34553 9.14989 3.22656 9.61132C2.87109 10.9512 2.46094 13.4121 2.46094 17.5C2.46094 21.5879 2.87109 24.0488 3.22656 25.3887C3.34553 25.8501 3.57244 26.2767 3.88858 26.6332C4.20472 26.9898 4.60105 27.2661 5.04492 27.4394C9.70703 29.2305 17.1855 29.2031 17.5 29.2031H17.5957C18.5391 29.2031 25.5117 29.1484 29.9551 27.4394C30.399 27.2661 30.7953 26.9898 31.1114 26.6332C31.4276 26.2767 31.6545 25.8501 31.7734 25.3887C32.1289 24.0488 32.5391 21.5879 32.5391 17.5C32.5391 13.4121 32.1289 10.9512 31.7734 9.61132ZM30.1875 24.9785C30.1337 25.1871 30.0313 25.3801 29.8888 25.5417C29.7462 25.7033 29.5675 25.8288 29.3672 25.9082C24.9922 27.5898 17.582 27.5625 17.5 27.5625C17.418 27.5625 10.0078 27.5898 5.63281 25.9082C5.43249 25.8288 5.25377 25.7033 5.11121 25.5417C4.96865 25.3801 4.8663 25.1871 4.8125 24.9785C4.48438 23.7207 4.10156 21.4101 4.10156 17.5C4.10156 13.5898 4.48438 11.2793 4.8125 10.0215C4.8663 9.81284 4.96865 9.61986 5.11121 9.4583C5.25377 9.29673 5.43249 9.17115 5.63281 9.09179C10.0078 7.41015 17.418 7.43749 17.5 7.43749C17.582 7.43749 24.9922 7.41015 29.3672 9.09179C29.5675 9.17115 29.7462 9.29673 29.8888 9.4583C30.0313 9.61986 30.1337 9.81284 30.1875 10.0215C30.5156 11.2793 30.8984 13.5898 30.8984 17.5C30.8984 21.4101 30.5156 23.7207 30.1875 24.9785Z" fill="#545454"/>
</svg>
